<mxfile host="app.diagrams.net" modified="2022-01-04T15:01:47.729Z" agent="5.0 (Windows NT 10.0; Win64; x64) AppleWebKit/537.36 (KHTML, like Gecko) Chrome/94.0.4606.85 YaBrowser/21.11.4.727 Yowser/2.5 Safari/537.36" etag="zzKVpkkK9l0PbB2TxWt9" version="15.9.6" type="github">
  <diagram id="pQeeyWps0hQ_D0mwcvIY" name="Page-1">
    <mxGraphModel dx="1716" dy="566" grid="1" gridSize="10" guides="1" tooltips="1" connect="1" arrows="1" fold="1" page="1" pageScale="1" pageWidth="827" pageHeight="1169" math="0" shadow="0">
      <root>
        <mxCell id="0" />
        <mxCell id="1" parent="0" />
        <mxCell id="_j-sV9EDR_Xk1Q__hm0P-1" value="" style="rounded=1;whiteSpace=wrap;html=1;" parent="1" vertex="1">
          <mxGeometry x="200" y="200" width="110" height="80" as="geometry" />
        </mxCell>
        <mxCell id="_j-sV9EDR_Xk1Q__hm0P-3" value="Банки" style="text;html=1;strokeColor=none;fillColor=none;align=center;verticalAlign=middle;whiteSpace=wrap;rounded=0;" parent="1" vertex="1">
          <mxGeometry x="225" y="170" width="60" height="30" as="geometry" />
        </mxCell>
        <mxCell id="_j-sV9EDR_Xk1Q__hm0P-4" value="Фейковые URL" style="text;html=1;strokeColor=none;fillColor=none;align=center;verticalAlign=middle;whiteSpace=wrap;rounded=0;" parent="1" vertex="1">
          <mxGeometry x="460" y="170" width="60" height="30" as="geometry" />
        </mxCell>
        <mxCell id="_j-sV9EDR_Xk1Q__hm0P-8" value="" style="endArrow=none;html=1;rounded=0;exitX=0;exitY=0.25;exitDx=0;exitDy=0;entryX=1;entryY=0.25;entryDx=0;entryDy=0;" parent="1" source="_j-sV9EDR_Xk1Q__hm0P-1" target="_j-sV9EDR_Xk1Q__hm0P-1" edge="1">
          <mxGeometry width="50" height="50" relative="1" as="geometry">
            <mxPoint x="200" y="230" as="sourcePoint" />
            <mxPoint x="250" y="180" as="targetPoint" />
            <Array as="points" />
          </mxGeometry>
        </mxCell>
        <mxCell id="_j-sV9EDR_Xk1Q__hm0P-9" value="" style="endArrow=none;html=1;rounded=0;exitX=0;exitY=0.75;exitDx=0;exitDy=0;entryX=1;entryY=0.75;entryDx=0;entryDy=0;" parent="1" source="_j-sV9EDR_Xk1Q__hm0P-1" target="_j-sV9EDR_Xk1Q__hm0P-1" edge="1">
          <mxGeometry width="50" height="50" relative="1" as="geometry">
            <mxPoint x="380" y="380" as="sourcePoint" />
            <mxPoint x="430" y="330" as="targetPoint" />
          </mxGeometry>
        </mxCell>
        <mxCell id="_j-sV9EDR_Xk1Q__hm0P-10" value="" style="endArrow=none;html=1;rounded=0;exitX=0;exitY=0.5;exitDx=0;exitDy=0;entryX=1;entryY=0.5;entryDx=0;entryDy=0;" parent="1" source="_j-sV9EDR_Xk1Q__hm0P-1" target="_j-sV9EDR_Xk1Q__hm0P-1" edge="1">
          <mxGeometry width="50" height="50" relative="1" as="geometry">
            <mxPoint x="380" y="380" as="sourcePoint" />
            <mxPoint x="430" y="330" as="targetPoint" />
          </mxGeometry>
        </mxCell>
        <mxCell id="_j-sV9EDR_Xk1Q__hm0P-15" value="id" style="text;html=1;strokeColor=none;fillColor=none;align=center;verticalAlign=middle;whiteSpace=wrap;rounded=0;" parent="1" vertex="1">
          <mxGeometry x="210" y="200" width="30" height="20" as="geometry" />
        </mxCell>
        <mxCell id="_j-sV9EDR_Xk1Q__hm0P-16" value="Рег номер" style="text;html=1;strokeColor=none;fillColor=none;align=center;verticalAlign=middle;whiteSpace=wrap;rounded=0;" parent="1" vertex="1">
          <mxGeometry x="210" y="220" width="70" height="20" as="geometry" />
        </mxCell>
        <mxCell id="_j-sV9EDR_Xk1Q__hm0P-18" value="Название" style="text;html=1;strokeColor=none;fillColor=none;align=center;verticalAlign=middle;whiteSpace=wrap;rounded=0;" parent="1" vertex="1">
          <mxGeometry x="210" y="240" width="70" height="20" as="geometry" />
        </mxCell>
        <mxCell id="_j-sV9EDR_Xk1Q__hm0P-19" value="URLs" style="text;html=1;strokeColor=none;fillColor=none;align=center;verticalAlign=middle;whiteSpace=wrap;rounded=0;" parent="1" vertex="1">
          <mxGeometry x="210" y="260" width="50" height="20" as="geometry" />
        </mxCell>
        <mxCell id="_j-sV9EDR_Xk1Q__hm0P-20" value="" style="rounded=1;whiteSpace=wrap;html=1;" parent="1" vertex="1">
          <mxGeometry x="440" y="200" width="110" height="80" as="geometry" />
        </mxCell>
        <mxCell id="_j-sV9EDR_Xk1Q__hm0P-21" value="" style="endArrow=none;html=1;rounded=0;exitX=0;exitY=0.25;exitDx=0;exitDy=0;entryX=1;entryY=0.25;entryDx=0;entryDy=0;" parent="1" source="_j-sV9EDR_Xk1Q__hm0P-20" target="_j-sV9EDR_Xk1Q__hm0P-20" edge="1">
          <mxGeometry width="50" height="50" relative="1" as="geometry">
            <mxPoint x="440" y="230" as="sourcePoint" />
            <mxPoint x="490" y="180" as="targetPoint" />
            <Array as="points" />
          </mxGeometry>
        </mxCell>
        <mxCell id="_j-sV9EDR_Xk1Q__hm0P-22" value="" style="endArrow=none;html=1;rounded=0;exitX=0;exitY=0.75;exitDx=0;exitDy=0;entryX=1;entryY=0.75;entryDx=0;entryDy=0;" parent="1" source="_j-sV9EDR_Xk1Q__hm0P-20" target="_j-sV9EDR_Xk1Q__hm0P-20" edge="1">
          <mxGeometry width="50" height="50" relative="1" as="geometry">
            <mxPoint x="620" y="380" as="sourcePoint" />
            <mxPoint x="670" y="330" as="targetPoint" />
          </mxGeometry>
        </mxCell>
        <mxCell id="_j-sV9EDR_Xk1Q__hm0P-23" value="" style="endArrow=none;html=1;rounded=0;exitX=0;exitY=0.5;exitDx=0;exitDy=0;entryX=1;entryY=0.5;entryDx=0;entryDy=0;" parent="1" source="_j-sV9EDR_Xk1Q__hm0P-20" target="_j-sV9EDR_Xk1Q__hm0P-20" edge="1">
          <mxGeometry width="50" height="50" relative="1" as="geometry">
            <mxPoint x="620" y="380" as="sourcePoint" />
            <mxPoint x="670" y="330" as="targetPoint" />
          </mxGeometry>
        </mxCell>
        <mxCell id="_j-sV9EDR_Xk1Q__hm0P-24" value="Относится к банку" style="text;html=1;strokeColor=none;fillColor=none;align=center;verticalAlign=middle;whiteSpace=wrap;rounded=0;" parent="1" vertex="1">
          <mxGeometry x="435" y="200" width="120" height="20" as="geometry" />
        </mxCell>
        <mxCell id="_j-sV9EDR_Xk1Q__hm0P-25" value="URL" style="text;html=1;strokeColor=none;fillColor=none;align=center;verticalAlign=middle;whiteSpace=wrap;rounded=0;" parent="1" vertex="1">
          <mxGeometry x="450" y="220" width="30" height="20" as="geometry" />
        </mxCell>
        <mxCell id="_j-sV9EDR_Xk1Q__hm0P-26" value="Цвета" style="text;html=1;strokeColor=none;fillColor=none;align=center;verticalAlign=middle;whiteSpace=wrap;rounded=0;" parent="1" vertex="1">
          <mxGeometry x="440" y="240" width="60" height="20" as="geometry" />
        </mxCell>
        <mxCell id="_j-sV9EDR_Xk1Q__hm0P-27" value="*Иные параметры*" style="text;html=1;strokeColor=none;fillColor=none;align=center;verticalAlign=middle;whiteSpace=wrap;rounded=0;" parent="1" vertex="1">
          <mxGeometry x="440" y="260" width="110" height="20" as="geometry" />
        </mxCell>
        <mxCell id="_j-sV9EDR_Xk1Q__hm0P-28" value="" style="endArrow=classic;html=1;rounded=0;exitX=1;exitY=0.638;exitDx=0;exitDy=0;exitPerimeter=0;entryX=-0.036;entryY=0.125;entryDx=0;entryDy=0;entryPerimeter=0;" parent="1" source="_j-sV9EDR_Xk1Q__hm0P-1" target="_j-sV9EDR_Xk1Q__hm0P-20" edge="1">
          <mxGeometry width="50" height="50" relative="1" as="geometry">
            <mxPoint x="380" y="360" as="sourcePoint" />
            <mxPoint x="430" y="310" as="targetPoint" />
            <Array as="points">
              <mxPoint x="370" y="250" />
              <mxPoint x="370" y="210" />
            </Array>
          </mxGeometry>
        </mxCell>
        <mxCell id="_j-sV9EDR_Xk1Q__hm0P-29" value="one-to-many" style="text;html=1;strokeColor=none;fillColor=none;align=center;verticalAlign=middle;whiteSpace=wrap;rounded=0;" parent="1" vertex="1">
          <mxGeometry x="360" y="210" width="60" height="30" as="geometry" />
        </mxCell>
        <mxCell id="bHVnZIvqa3Rr0SnqRM4s-2" value="Антифишинг приложение" style="rounded=0;whiteSpace=wrap;html=1;" vertex="1" parent="1">
          <mxGeometry x="210" y="420" width="190" height="100" as="geometry" />
        </mxCell>
        <mxCell id="bHVnZIvqa3Rr0SnqRM4s-3" value="" style="endArrow=classic;html=1;rounded=0;entryX=0;entryY=0.5;entryDx=0;entryDy=0;" edge="1" parent="1" target="bHVnZIvqa3Rr0SnqRM4s-2">
          <mxGeometry width="50" height="50" relative="1" as="geometry">
            <mxPoint x="130" y="470" as="sourcePoint" />
            <mxPoint x="300" y="430" as="targetPoint" />
          </mxGeometry>
        </mxCell>
        <mxCell id="bHVnZIvqa3Rr0SnqRM4s-5" value="URL" style="text;html=1;strokeColor=none;fillColor=none;align=center;verticalAlign=middle;whiteSpace=wrap;rounded=0;" vertex="1" parent="1">
          <mxGeometry x="120" y="440" width="60" height="30" as="geometry" />
        </mxCell>
        <mxCell id="bHVnZIvqa3Rr0SnqRM4s-6" value="" style="endArrow=classic;html=1;rounded=0;" edge="1" parent="1">
          <mxGeometry width="50" height="50" relative="1" as="geometry">
            <mxPoint x="240" y="580" as="sourcePoint" />
            <mxPoint x="240" y="520" as="targetPoint" />
          </mxGeometry>
        </mxCell>
        <mxCell id="bHVnZIvqa3Rr0SnqRM4s-7" value="" style="endArrow=classic;html=1;rounded=0;entryX=0.827;entryY=0.998;entryDx=0;entryDy=0;entryPerimeter=0;" edge="1" parent="1" target="bHVnZIvqa3Rr0SnqRM4s-2">
          <mxGeometry width="50" height="50" relative="1" as="geometry">
            <mxPoint x="367" y="580" as="sourcePoint" />
            <mxPoint x="300" y="530" as="targetPoint" />
          </mxGeometry>
        </mxCell>
        <mxCell id="bHVnZIvqa3Rr0SnqRM4s-8" value="Пользователь&lt;br&gt;сети Интернет" style="text;html=1;strokeColor=none;fillColor=none;align=center;verticalAlign=middle;whiteSpace=wrap;rounded=0;" vertex="1" parent="1">
          <mxGeometry x="165" y="555" width="60" height="30" as="geometry" />
        </mxCell>
        <mxCell id="bHVnZIvqa3Rr0SnqRM4s-9" value="Аналитик" style="text;html=1;strokeColor=none;fillColor=none;align=center;verticalAlign=middle;whiteSpace=wrap;rounded=0;" vertex="1" parent="1">
          <mxGeometry x="300" y="555" width="60" height="30" as="geometry" />
        </mxCell>
        <mxCell id="bHVnZIvqa3Rr0SnqRM4s-10" value="" style="endArrow=classic;html=1;rounded=0;exitX=0.996;exitY=0.166;exitDx=0;exitDy=0;exitPerimeter=0;" edge="1" parent="1" source="bHVnZIvqa3Rr0SnqRM4s-2">
          <mxGeometry width="50" height="50" relative="1" as="geometry">
            <mxPoint x="250" y="570" as="sourcePoint" />
            <mxPoint x="490" y="437" as="targetPoint" />
          </mxGeometry>
        </mxCell>
        <mxCell id="bHVnZIvqa3Rr0SnqRM4s-11" value="Вердикт" style="text;html=1;strokeColor=none;fillColor=none;align=center;verticalAlign=middle;whiteSpace=wrap;rounded=0;" vertex="1" parent="1">
          <mxGeometry x="414" y="410" width="60" height="30" as="geometry" />
        </mxCell>
        <mxCell id="bHVnZIvqa3Rr0SnqRM4s-12" value="" style="endArrow=classic;html=1;rounded=0;exitX=1;exitY=0.5;exitDx=0;exitDy=0;" edge="1" parent="1" source="bHVnZIvqa3Rr0SnqRM4s-2">
          <mxGeometry width="50" height="50" relative="1" as="geometry">
            <mxPoint x="400" y="480" as="sourcePoint" />
            <mxPoint x="490" y="470" as="targetPoint" />
          </mxGeometry>
        </mxCell>
        <mxCell id="bHVnZIvqa3Rr0SnqRM4s-13" value="Обоснование" style="text;html=1;strokeColor=none;fillColor=none;align=center;verticalAlign=middle;whiteSpace=wrap;rounded=0;" vertex="1" parent="1">
          <mxGeometry x="414" y="440" width="60" height="30" as="geometry" />
        </mxCell>
        <mxCell id="bHVnZIvqa3Rr0SnqRM4s-14" value="" style="endArrow=classic;html=1;rounded=0;exitX=1.008;exitY=0.878;exitDx=0;exitDy=0;exitPerimeter=0;" edge="1" parent="1" source="bHVnZIvqa3Rr0SnqRM4s-2">
          <mxGeometry width="50" height="50" relative="1" as="geometry">
            <mxPoint x="413.23" y="490.6" as="sourcePoint" />
            <mxPoint x="490" y="508" as="targetPoint" />
          </mxGeometry>
        </mxCell>
        <mxCell id="bHVnZIvqa3Rr0SnqRM4s-15" value="Справочные данные" style="text;html=1;strokeColor=none;fillColor=none;align=center;verticalAlign=middle;whiteSpace=wrap;rounded=0;" vertex="1" parent="1">
          <mxGeometry x="414" y="470" width="60" height="30" as="geometry" />
        </mxCell>
        <mxCell id="bHVnZIvqa3Rr0SnqRM4s-16" value="" style="endArrow=classic;html=1;rounded=0;entryX=0.158;entryY=-0.01;entryDx=0;entryDy=0;entryPerimeter=0;" edge="1" parent="1" target="bHVnZIvqa3Rr0SnqRM4s-2">
          <mxGeometry width="50" height="50" relative="1" as="geometry">
            <mxPoint x="240" y="360" as="sourcePoint" />
            <mxPoint x="300" y="510" as="targetPoint" />
          </mxGeometry>
        </mxCell>
        <mxCell id="bHVnZIvqa3Rr0SnqRM4s-17" value="" style="endArrow=classic;html=1;rounded=0;entryX=0.541;entryY=0.014;entryDx=0;entryDy=0;entryPerimeter=0;" edge="1" parent="1" target="bHVnZIvqa3Rr0SnqRM4s-2">
          <mxGeometry width="50" height="50" relative="1" as="geometry">
            <mxPoint x="313" y="360" as="sourcePoint" />
            <mxPoint x="300" y="510" as="targetPoint" />
          </mxGeometry>
        </mxCell>
        <mxCell id="bHVnZIvqa3Rr0SnqRM4s-18" value="Информация из сети Интернет" style="text;html=1;strokeColor=none;fillColor=none;align=center;verticalAlign=middle;whiteSpace=wrap;rounded=0;" vertex="1" parent="1">
          <mxGeometry x="210" y="320" width="60" height="30" as="geometry" />
        </mxCell>
        <mxCell id="bHVnZIvqa3Rr0SnqRM4s-19" value="Логика анализа" style="text;html=1;strokeColor=none;fillColor=none;align=center;verticalAlign=middle;whiteSpace=wrap;rounded=0;" vertex="1" parent="1">
          <mxGeometry x="280" y="330" width="60" height="30" as="geometry" />
        </mxCell>
        <mxCell id="bHVnZIvqa3Rr0SnqRM4s-20" value="" style="endArrow=classic;html=1;rounded=0;entryX=0.882;entryY=-0.018;entryDx=0;entryDy=0;entryPerimeter=0;" edge="1" parent="1" target="bHVnZIvqa3Rr0SnqRM4s-2">
          <mxGeometry width="50" height="50" relative="1" as="geometry">
            <mxPoint x="378" y="360" as="sourcePoint" />
            <mxPoint x="360" y="280" as="targetPoint" />
          </mxGeometry>
        </mxCell>
        <mxCell id="bHVnZIvqa3Rr0SnqRM4s-21" value="Аналитические данные из БД" style="text;html=1;strokeColor=none;fillColor=none;align=center;verticalAlign=middle;whiteSpace=wrap;rounded=0;" vertex="1" parent="1">
          <mxGeometry x="325" y="330" width="110" height="30" as="geometry" />
        </mxCell>
        <mxCell id="bHVnZIvqa3Rr0SnqRM4s-24" value="Первичный анализ на наличие https, hsts, выгрузка статических данных, поиск сторонних ссылок" style="rounded=0;whiteSpace=wrap;html=1;" vertex="1" parent="1">
          <mxGeometry x="-115" y="680" width="120" height="90" as="geometry" />
        </mxCell>
        <mxCell id="bHVnZIvqa3Rr0SnqRM4s-25" value="Запросы по api в аналитические сервисы" style="rounded=0;whiteSpace=wrap;html=1;" vertex="1" parent="1">
          <mxGeometry x="25" y="760" width="120" height="60" as="geometry" />
        </mxCell>
        <mxCell id="bHVnZIvqa3Rr0SnqRM4s-26" value="Проверка относительно цветовой гаммы" style="rounded=0;whiteSpace=wrap;html=1;" vertex="1" parent="1">
          <mxGeometry x="165" y="820" width="120" height="60" as="geometry" />
        </mxCell>
        <mxCell id="bHVnZIvqa3Rr0SnqRM4s-27" value="Поиск следов наборов для фишинга" style="rounded=0;whiteSpace=wrap;html=1;" vertex="1" parent="1">
          <mxGeometry x="305" y="890" width="120" height="60" as="geometry" />
        </mxCell>
        <mxCell id="bHVnZIvqa3Rr0SnqRM4s-28" value="Подготовка отчета" style="rounded=0;whiteSpace=wrap;html=1;" vertex="1" parent="1">
          <mxGeometry x="415" y="970" width="120" height="60" as="geometry" />
        </mxCell>
        <mxCell id="bHVnZIvqa3Rr0SnqRM4s-29" value="" style="endArrow=classic;html=1;rounded=0;exitX=1;exitY=0.5;exitDx=0;exitDy=0;" edge="1" parent="1" source="bHVnZIvqa3Rr0SnqRM4s-28">
          <mxGeometry width="50" height="50" relative="1" as="geometry">
            <mxPoint x="205" y="880" as="sourcePoint" />
            <mxPoint x="585" y="1000" as="targetPoint" />
          </mxGeometry>
        </mxCell>
        <mxCell id="bHVnZIvqa3Rr0SnqRM4s-30" value="Отчет" style="text;html=1;strokeColor=none;fillColor=none;align=center;verticalAlign=middle;whiteSpace=wrap;rounded=0;" vertex="1" parent="1">
          <mxGeometry x="580" y="985" width="60" height="30" as="geometry" />
        </mxCell>
        <mxCell id="bHVnZIvqa3Rr0SnqRM4s-31" value="" style="endArrow=classic;html=1;rounded=0;exitX=1;exitY=0.5;exitDx=0;exitDy=0;" edge="1" parent="1" source="bHVnZIvqa3Rr0SnqRM4s-24">
          <mxGeometry width="50" height="50" relative="1" as="geometry">
            <mxPoint x="190" y="880" as="sourcePoint" />
            <mxPoint x="80" y="760" as="targetPoint" />
            <Array as="points">
              <mxPoint x="80" y="725" />
            </Array>
          </mxGeometry>
        </mxCell>
        <mxCell id="bHVnZIvqa3Rr0SnqRM4s-32" value="" style="endArrow=classic;html=1;rounded=0;entryX=0.5;entryY=0;entryDx=0;entryDy=0;exitX=1;exitY=0.5;exitDx=0;exitDy=0;" edge="1" parent="1" source="bHVnZIvqa3Rr0SnqRM4s-25" target="bHVnZIvqa3Rr0SnqRM4s-26">
          <mxGeometry width="50" height="50" relative="1" as="geometry">
            <mxPoint x="150" y="790" as="sourcePoint" />
            <mxPoint x="240" y="830" as="targetPoint" />
            <Array as="points">
              <mxPoint x="225" y="790" />
            </Array>
          </mxGeometry>
        </mxCell>
        <mxCell id="bHVnZIvqa3Rr0SnqRM4s-33" value="" style="endArrow=classic;html=1;rounded=0;exitX=1;exitY=0.5;exitDx=0;exitDy=0;entryX=0.5;entryY=0;entryDx=0;entryDy=0;" edge="1" parent="1" source="bHVnZIvqa3Rr0SnqRM4s-26" target="bHVnZIvqa3Rr0SnqRM4s-27">
          <mxGeometry width="50" height="50" relative="1" as="geometry">
            <mxPoint x="190" y="880" as="sourcePoint" />
            <mxPoint x="240" y="830" as="targetPoint" />
            <Array as="points">
              <mxPoint x="365" y="850" />
            </Array>
          </mxGeometry>
        </mxCell>
        <mxCell id="bHVnZIvqa3Rr0SnqRM4s-34" value="" style="endArrow=classic;html=1;rounded=0;exitX=1;exitY=0.5;exitDx=0;exitDy=0;entryX=0.5;entryY=0;entryDx=0;entryDy=0;" edge="1" parent="1" source="bHVnZIvqa3Rr0SnqRM4s-27" target="bHVnZIvqa3Rr0SnqRM4s-28">
          <mxGeometry width="50" height="50" relative="1" as="geometry">
            <mxPoint x="190" y="880" as="sourcePoint" />
            <mxPoint x="240" y="830" as="targetPoint" />
            <Array as="points">
              <mxPoint x="475" y="920" />
            </Array>
          </mxGeometry>
        </mxCell>
        <mxCell id="bHVnZIvqa3Rr0SnqRM4s-35" value="" style="endArrow=classic;html=1;rounded=0;exitX=0.401;exitY=-0.141;exitDx=0;exitDy=0;exitPerimeter=0;" edge="1" parent="1" source="bHVnZIvqa3Rr0SnqRM4s-36">
          <mxGeometry width="50" height="50" relative="1" as="geometry">
            <mxPoint x="85" y="920" as="sourcePoint" />
            <mxPoint x="77" y="820" as="targetPoint" />
          </mxGeometry>
        </mxCell>
        <mxCell id="bHVnZIvqa3Rr0SnqRM4s-36" value="&lt;span style=&quot;color: rgb(0, 0, 0); font-family: helvetica; font-size: 12px; font-style: normal; font-weight: 400; letter-spacing: normal; text-align: center; text-indent: 0px; text-transform: none; word-spacing: 0px; background-color: rgb(248, 249, 250); display: inline; float: none;&quot;&gt;urlscan, checkphish&lt;/span&gt;" style="text;whiteSpace=wrap;html=1;" vertex="1" parent="1">
          <mxGeometry x="25" y="920" width="130" height="30" as="geometry" />
        </mxCell>
        <mxCell id="bHVnZIvqa3Rr0SnqRM4s-37" value="" style="endArrow=classic;html=1;rounded=0;entryX=0.5;entryY=1;entryDx=0;entryDy=0;" edge="1" parent="1" target="bHVnZIvqa3Rr0SnqRM4s-27">
          <mxGeometry width="50" height="50" relative="1" as="geometry">
            <mxPoint x="365" y="1000" as="sourcePoint" />
            <mxPoint x="270" y="940" as="targetPoint" />
          </mxGeometry>
        </mxCell>
        <mxCell id="bHVnZIvqa3Rr0SnqRM4s-38" value="Phishing kits" style="text;html=1;strokeColor=none;fillColor=none;align=center;verticalAlign=middle;whiteSpace=wrap;rounded=0;" vertex="1" parent="1">
          <mxGeometry x="335" y="1000" width="60" height="30" as="geometry" />
        </mxCell>
        <mxCell id="bHVnZIvqa3Rr0SnqRM4s-39" value="" style="endArrow=classic;html=1;rounded=0;entryX=0.5;entryY=1;entryDx=0;entryDy=0;" edge="1" parent="1" target="bHVnZIvqa3Rr0SnqRM4s-24">
          <mxGeometry width="50" height="50" relative="1" as="geometry">
            <mxPoint x="-55" y="1070" as="sourcePoint" />
            <mxPoint x="270" y="930" as="targetPoint" />
          </mxGeometry>
        </mxCell>
        <mxCell id="bHVnZIvqa3Rr0SnqRM4s-40" value="" style="endArrow=classic;html=1;rounded=0;entryX=0.5;entryY=1;entryDx=0;entryDy=0;" edge="1" parent="1" target="bHVnZIvqa3Rr0SnqRM4s-26">
          <mxGeometry width="50" height="50" relative="1" as="geometry">
            <mxPoint x="225" y="1070" as="sourcePoint" />
            <mxPoint x="270" y="930" as="targetPoint" />
          </mxGeometry>
        </mxCell>
        <mxCell id="bHVnZIvqa3Rr0SnqRM4s-41" value="" style="endArrow=classic;html=1;rounded=0;entryX=0.5;entryY=1;entryDx=0;entryDy=0;" edge="1" parent="1" target="bHVnZIvqa3Rr0SnqRM4s-28">
          <mxGeometry width="50" height="50" relative="1" as="geometry">
            <mxPoint x="475" y="1070" as="sourcePoint" />
            <mxPoint x="270" y="930" as="targetPoint" />
          </mxGeometry>
        </mxCell>
        <mxCell id="bHVnZIvqa3Rr0SnqRM4s-42" value="" style="endArrow=none;html=1;rounded=0;" edge="1" parent="1">
          <mxGeometry width="50" height="50" relative="1" as="geometry">
            <mxPoint x="-56" y="1070" as="sourcePoint" />
            <mxPoint x="474" y="1070" as="targetPoint" />
          </mxGeometry>
        </mxCell>
        <mxCell id="bHVnZIvqa3Rr0SnqRM4s-43" value="Контроллеры приложения" style="text;html=1;strokeColor=none;fillColor=none;align=center;verticalAlign=middle;whiteSpace=wrap;rounded=0;" vertex="1" parent="1">
          <mxGeometry x="190" y="1080" width="60" height="30" as="geometry" />
        </mxCell>
        <mxCell id="bHVnZIvqa3Rr0SnqRM4s-44" value="Первичный анализ на наличие https, hsts, выгрузка статических данных, поиск сторонних ссылок" style="rounded=0;whiteSpace=wrap;html=1;" vertex="1" parent="1">
          <mxGeometry x="-800" y="605" width="120" height="90" as="geometry" />
        </mxCell>
        <mxCell id="bHVnZIvqa3Rr0SnqRM4s-45" value="Запросы по api в аналитические сервисы" style="rounded=0;whiteSpace=wrap;html=1;" vertex="1" parent="1">
          <mxGeometry x="-670" y="605" width="120" height="60" as="geometry" />
        </mxCell>
        <mxCell id="bHVnZIvqa3Rr0SnqRM4s-46" value="Проверка относительно цветовой гаммы" style="rounded=0;whiteSpace=wrap;html=1;" vertex="1" parent="1">
          <mxGeometry x="-540" y="605" width="120" height="60" as="geometry" />
        </mxCell>
        <mxCell id="bHVnZIvqa3Rr0SnqRM4s-47" value="Поиск следов наборов для фишинга" style="rounded=0;whiteSpace=wrap;html=1;" vertex="1" parent="1">
          <mxGeometry x="-410" y="605" width="120" height="60" as="geometry" />
        </mxCell>
        <mxCell id="bHVnZIvqa3Rr0SnqRM4s-48" style="edgeStyle=orthogonalEdgeStyle;rounded=0;orthogonalLoop=1;jettySize=auto;html=1;exitX=0.5;exitY=1;exitDx=0;exitDy=0;" edge="1" parent="1" source="bHVnZIvqa3Rr0SnqRM4s-44" target="bHVnZIvqa3Rr0SnqRM4s-44">
          <mxGeometry relative="1" as="geometry" />
        </mxCell>
        <mxCell id="bHVnZIvqa3Rr0SnqRM4s-50" value="Подготовка отчета" style="rounded=0;whiteSpace=wrap;html=1;" vertex="1" parent="1">
          <mxGeometry x="-280" y="605" width="120" height="60" as="geometry" />
        </mxCell>
        <mxCell id="bHVnZIvqa3Rr0SnqRM4s-51" value="&lt;ul&gt;&lt;li&gt;Проверка https&lt;/li&gt;&lt;li&gt;Проверка hsts&lt;/li&gt;&lt;li&gt;Выгрузка статических данных&lt;/li&gt;&lt;li&gt;Поиск сторонних ссылок&amp;nbsp;&lt;/li&gt;&lt;/ul&gt;" style="text;html=1;strokeColor=none;fillColor=none;align=left;verticalAlign=middle;whiteSpace=wrap;rounded=0;" vertex="1" parent="1">
          <mxGeometry x="-827" y="675" width="147" height="145" as="geometry" />
        </mxCell>
        <mxCell id="bHVnZIvqa3Rr0SnqRM4s-52" value="&lt;ul&gt;&lt;li&gt;Запрос в urlscan&lt;/li&gt;&lt;li&gt;Запрос в checkphish&amp;nbsp;&lt;/li&gt;&lt;/ul&gt;" style="text;html=1;strokeColor=none;fillColor=none;align=left;verticalAlign=middle;whiteSpace=wrap;rounded=0;" vertex="1" parent="1">
          <mxGeometry x="-670" y="675" width="120" height="80" as="geometry" />
        </mxCell>
        <mxCell id="bHVnZIvqa3Rr0SnqRM4s-54" value="&lt;ul&gt;&lt;li&gt;Извлечение скриншота веб-страницы&lt;/li&gt;&lt;li&gt;Выделение цветовой гаммы веб-страницы&amp;nbsp;&lt;/li&gt;&lt;/ul&gt;" style="text;html=1;strokeColor=none;fillColor=none;align=left;verticalAlign=middle;whiteSpace=wrap;rounded=0;" vertex="1" parent="1">
          <mxGeometry x="-556" y="672.5" width="143" height="105" as="geometry" />
        </mxCell>
        <mxCell id="bHVnZIvqa3Rr0SnqRM4s-56" value="Процесс анализа сайта" style="rounded=0;whiteSpace=wrap;html=1;" vertex="1" parent="1">
          <mxGeometry x="-540" y="470" width="120" height="60" as="geometry" />
        </mxCell>
        <mxCell id="bHVnZIvqa3Rr0SnqRM4s-57" value="" style="endArrow=classic;html=1;rounded=0;exitX=0.5;exitY=1;exitDx=0;exitDy=0;entryX=0.625;entryY=-0.015;entryDx=0;entryDy=0;entryPerimeter=0;" edge="1" parent="1" source="bHVnZIvqa3Rr0SnqRM4s-56" target="bHVnZIvqa3Rr0SnqRM4s-44">
          <mxGeometry width="50" height="50" relative="1" as="geometry">
            <mxPoint x="-460" y="610" as="sourcePoint" />
            <mxPoint x="-410" y="560" as="targetPoint" />
          </mxGeometry>
        </mxCell>
        <mxCell id="bHVnZIvqa3Rr0SnqRM4s-58" value="" style="endArrow=classic;html=1;rounded=0;exitX=0.5;exitY=1;exitDx=0;exitDy=0;entryX=0.614;entryY=0;entryDx=0;entryDy=0;entryPerimeter=0;" edge="1" parent="1" source="bHVnZIvqa3Rr0SnqRM4s-56" target="bHVnZIvqa3Rr0SnqRM4s-45">
          <mxGeometry width="50" height="50" relative="1" as="geometry">
            <mxPoint x="-460" y="610" as="sourcePoint" />
            <mxPoint x="-580" y="600" as="targetPoint" />
          </mxGeometry>
        </mxCell>
        <mxCell id="bHVnZIvqa3Rr0SnqRM4s-59" value="" style="endArrow=classic;html=1;rounded=0;entryX=0.5;entryY=0;entryDx=0;entryDy=0;" edge="1" parent="1" target="bHVnZIvqa3Rr0SnqRM4s-46">
          <mxGeometry width="50" height="50" relative="1" as="geometry">
            <mxPoint x="-480" y="530" as="sourcePoint" />
            <mxPoint x="-480" y="600" as="targetPoint" />
          </mxGeometry>
        </mxCell>
        <mxCell id="bHVnZIvqa3Rr0SnqRM4s-60" value="" style="endArrow=classic;html=1;rounded=0;exitX=0.5;exitY=1;exitDx=0;exitDy=0;entryX=0.558;entryY=0.022;entryDx=0;entryDy=0;entryPerimeter=0;" edge="1" parent="1" source="bHVnZIvqa3Rr0SnqRM4s-56" target="bHVnZIvqa3Rr0SnqRM4s-47">
          <mxGeometry width="50" height="50" relative="1" as="geometry">
            <mxPoint x="-460" y="610" as="sourcePoint" />
            <mxPoint x="-410" y="560" as="targetPoint" />
          </mxGeometry>
        </mxCell>
        <mxCell id="bHVnZIvqa3Rr0SnqRM4s-61" value="" style="endArrow=classic;html=1;rounded=0;entryX=0.592;entryY=-0.044;entryDx=0;entryDy=0;entryPerimeter=0;" edge="1" parent="1" target="bHVnZIvqa3Rr0SnqRM4s-50">
          <mxGeometry width="50" height="50" relative="1" as="geometry">
            <mxPoint x="-480" y="530" as="sourcePoint" />
            <mxPoint x="-410" y="560" as="targetPoint" />
          </mxGeometry>
        </mxCell>
      </root>
    </mxGraphModel>
  </diagram>
</mxfile>
